<svg width="100" height="97" viewBox="0 0 100 97" fill="none" xmlns="http://www.w3.org/2000/svg">
<path d="M45.8247 36.6514C47.5271 36.6514 49.1676 37.1817 50.5604 38.211L89.22 66.5651C90.9533 67.844 92.0985 69.7156 92.439 71.8679C92.7795 74.0202 92.2533 76.1413 90.9843 77.8881C89.4366 80.0092 87.0842 81.2257 84.4533 81.2257C81.8223 81.2257 81.1104 80.6954 79.7176 79.6661L41.0581 51.3119C39.3247 50.033 38.1795 48.1615 37.839 46.0092C37.4985 43.8569 38.0247 41.7358 39.2938 39.989C40.8414 37.8679 43.1938 36.6514 45.8247 36.6514ZM45.8247 29.1651C41.0581 29.1651 36.3223 31.3798 33.289 35.5908C28.2747 42.5468 29.7914 52.3101 36.6938 57.3633L75.3533 85.7174C78.1081 87.745 81.2962 88.7119 84.4533 88.7119C89.22 88.7119 93.9557 86.4973 96.989 82.2862C102.003 75.3303 100.487 65.567 93.5842 60.5138L54.9247 32.1596C52.17 30.1321 48.9819 29.1651 45.8247 29.1651Z" fill="url(#paint0_linear_20_37)"/>
<path d="M69.1938 7.48624C70.8961 7.48624 72.5366 8.01651 73.9295 9.04587L79.47 13.1009C83.0604 15.7211 83.8652 20.8055 81.2342 24.4239L76.4985 30.9743L64.4581 22.1468C60.8676 19.5266 60.0628 14.4422 62.6938 10.8239C64.2414 8.70275 66.5938 7.48624 69.2247 7.48624M69.1938 0C64.4271 0 59.6914 2.21468 56.658 6.42569C51.6438 13.3816 53.1604 23.145 60.0628 28.1982L78.108 41.4239L87.2081 28.822C92.2223 21.8661 90.7057 12.1027 83.8033 7.04954L78.2628 2.99449C75.508 0.966969 72.32 0 69.1628 0H69.1938Z" fill="url(#paint1_linear_20_37)"/>
<path d="M15.4914 14.4422C17.1938 14.4422 18.8342 14.9725 20.2271 16.0018C21.9604 17.2807 23.1057 19.1523 23.4462 21.3046C23.7866 23.4569 23.2604 25.578 21.9914 27.3248C20.4438 29.4459 18.0914 30.6624 15.4604 30.6624C12.8295 30.6624 12.1176 30.1321 10.7247 29.1028C8.9914 27.8239 7.84615 25.9523 7.50568 23.8C7.1652 21.6477 7.69139 19.5266 8.96044 17.7798C10.5081 15.6587 12.8604 14.4422 15.4914 14.4422ZM15.4914 6.95597C10.7247 6.95597 5.98901 9.17064 2.95567 13.3817C-2.05861 20.3376 -0.541946 30.1009 6.36043 35.1541C9.1152 37.1817 12.3033 38.1486 15.4604 38.1486C20.2271 38.1486 24.9628 35.9339 27.9962 31.7229C33.0104 24.767 31.4938 15.0037 24.5914 9.95046C21.8366 7.92294 18.6485 6.95597 15.4914 6.95597Z" fill="url(#paint2_linear_20_37)"/>
<path d="M23.3533 65.3174L35.3937 74.145C38.9842 76.7652 39.789 81.8495 37.158 85.4679C35.6104 87.589 33.258 88.8055 30.6271 88.8055C27.9961 88.8055 27.2842 88.2752 25.8914 87.2459L20.3509 83.1908C16.7604 80.5706 15.9557 75.4863 18.5866 71.8679L23.3223 65.3174M21.7128 54.8367L12.6128 67.4385C7.59851 74.3945 9.11518 84.1578 16.0176 89.211L21.558 93.2661C24.3128 95.2936 27.5009 96.2606 30.658 96.2606C35.4247 96.2606 40.1604 94.0459 43.1937 89.8349C48.208 82.8789 46.6914 73.1156 39.789 68.0624L21.7438 54.8367H21.7128Z" fill="url(#paint3_linear_20_37)"/>
<defs>
<linearGradient id="paint0_linear_20_37" x1="133" y1="-6.5" x2="-24.5" y2="87.5" gradientUnits="userSpaceOnUse">
<stop stop-color="#1670C3"/>
<stop offset="0.480769" stop-color="#1099E9"/>
<stop offset="1" stop-color="#24D5FF"/>
</linearGradient>
<linearGradient id="paint1_linear_20_37" x1="133" y1="-6.5" x2="-24.5" y2="87.5" gradientUnits="userSpaceOnUse">
<stop stop-color="#1670C3"/>
<stop offset="0.480769" stop-color="#1099E9"/>
<stop offset="1" stop-color="#24D5FF"/>
</linearGradient>
<linearGradient id="paint2_linear_20_37" x1="133" y1="-6.5" x2="-24.5" y2="87.5" gradientUnits="userSpaceOnUse">
<stop stop-color="#1670C3"/>
<stop offset="0.480769" stop-color="#1099E9"/>
<stop offset="1" stop-color="#24D5FF"/>
</linearGradient>
<linearGradient id="paint3_linear_20_37" x1="133" y1="-6.5" x2="-24.5" y2="87.5" gradientUnits="userSpaceOnUse">
<stop stop-color="#1670C3"/>
<stop offset="0.480769" stop-color="#1099E9"/>
<stop offset="1" stop-color="#24D5FF"/>
</linearGradient>
</defs>
</svg>
