<svg width="769" height="344" viewBox="0 0 769 344" fill="none" xmlns="http://www.w3.org/2000/svg">
<path d="M1.65 230.25C0.55 230.25 0 229.7 0 228.6V133.65C0 132.55 0.55 132 1.65 132H13.5C14.6 132 15.15 132.55 15.15 133.65V161.1C15.15 164.1 15.1 167.15 15 170.25C15 173.25 14.95 176.2 14.85 179.1H15C17.2 176.5 19.4 173.9 21.6 171.3C23.8 168.7 26.05 166.1 28.35 163.5L55.35 132.9C55.75 132.3 56.4 132 57.3 132H72.45C73.05 132 73.5 132.2 73.8 132.6C74.1 132.9 73.95 133.35 73.35 133.95L39.15 171.9L76.35 228.3C76.65 228.9 76.7 229.4 76.5 229.8C76.3 230.1 75.9 230.25 75.3 230.25H60.3C59.5 230.25 58.85 229.9 58.35 229.2L28.8 183.6L15.15 198.6V228.6C15.15 229.7 14.6 230.25 13.5 230.25H1.65Z" fill="#0E1E35"/>
<path d="M138.87 231.85C126.07 231.85 116.47 228.75 110.07 222.55C103.77 216.25 100.62 207.35 100.62 195.85V166C100.62 154.4 103.77 145.5 110.07 139.3C116.47 133.1 126.07 130 138.87 130C151.67 130 161.22 133.1 167.52 139.3C173.92 145.5 177.12 154.4 177.12 166V195.85C177.12 207.35 173.92 216.25 167.52 222.55C161.22 228.75 151.67 231.85 138.87 231.85ZM138.87 218.5C146.47 218.5 152.22 216.55 156.12 212.65C160.02 208.65 161.97 202.9 161.97 195.4V166.45C161.97 158.85 160.02 153.1 156.12 149.2C152.22 145.3 146.47 143.35 138.87 143.35C131.37 143.35 125.62 145.3 121.62 149.2C117.72 153.1 115.77 158.85 115.77 166.45V195.4C115.77 202.9 117.72 208.65 121.62 212.65C125.62 216.55 131.37 218.5 138.87 218.5Z" fill="#0E1E35"/>
<path d="M202.77 230.25C201.67 230.25 201.12 229.7 201.12 228.6L203.22 133.65C203.22 132.55 203.77 132 204.87 132H222.27C223.07 132 223.67 132.4 224.07 133.2L249.72 190.2L275.07 133.2C275.47 132.4 276.07 132 276.87 132H294.42C295.42 132 295.92 132.55 295.92 133.65L298.02 228.6C298.02 229.7 297.52 230.25 296.52 230.25H284.82C283.82 230.25 283.32 229.7 283.32 228.6L281.82 173.7C281.72 169.9 281.77 166.1 281.97 162.3C282.17 158.5 282.32 154.7 282.42 150.9H281.97C280.47 154.6 278.87 158.35 277.17 162.15C275.57 165.95 273.87 169.7 272.07 173.4L251.52 217.35C251.22 218.05 250.62 218.4 249.72 218.4H249.27C248.47 218.4 247.87 218.05 247.47 217.35L226.77 172.8C225.07 169.2 223.42 165.55 221.82 161.85C220.32 158.15 218.82 154.5 217.32 150.9H217.02C217.22 154.5 217.32 158.2 217.32 162C217.42 165.8 217.42 169.55 217.32 173.25L215.97 228.6C215.97 229.7 215.42 230.25 214.32 230.25H202.77Z" fill="#0E1E35"/>
<path d="M323.67 230.25C322.57 230.25 322.02 229.7 322.02 228.6V133.65C322.02 132.55 322.57 132 323.67 132H349.92C362.42 132 371.72 134.65 377.82 139.95C384.02 145.25 387.12 153 387.12 163.2C387.12 173.4 383.97 181.15 377.67 186.45C371.47 191.75 362.22 194.4 349.92 194.4H337.17V228.6C337.17 229.7 336.62 230.25 335.52 230.25H323.67ZM337.17 181.65H349.62C357.32 181.65 362.97 180.2 366.57 177.3C370.17 174.4 371.97 169.85 371.97 163.65C371.97 157.05 370.12 152.3 366.42 149.4C362.82 146.4 357.17 144.9 349.47 144.9H337.17V181.65Z" fill="#0E1E35"/>
<path d="M412.77 230.25C411.67 230.25 411.12 229.7 411.12 228.6V133.65C411.12 132.55 411.67 132 412.77 132H424.77C425.77 132 426.27 132.55 426.27 133.65V216.75H466.77C467.87 216.75 468.42 217.3 468.42 218.4V228.6C468.42 229.7 467.87 230.25 466.77 230.25H412.77Z" fill="#0E1E35"/>
<path d="M576.74 230.25C576.14 230.25 575.74 230.1 575.54 229.8C575.34 229.4 575.39 228.9 575.69 228.3L607.64 179.7L577.79 133.95C577.49 133.35 577.39 132.9 577.49 132.6C577.69 132.2 578.14 132 578.84 132H593.24C594.04 132 594.64 132.35 595.04 133.05L610.49 157.05C611.59 158.85 612.74 160.75 613.94 162.75C615.14 164.75 616.29 166.65 617.39 168.45H617.54C618.64 166.45 619.79 164.45 620.99 162.45C622.29 160.35 623.54 158.35 624.74 156.45L639.74 133.05C640.24 132.35 640.89 132 641.69 132H655.49C656.19 132 656.59 132.2 656.69 132.6C656.89 132.9 656.84 133.35 656.54 133.95L626.84 179.85L658.19 228.3C658.59 228.8 658.69 229.25 658.49 229.65C658.29 230.05 657.89 230.25 657.29 230.25H642.74C642.04 230.25 641.39 229.9 640.79 229.2L624.44 203.7C623.24 201.8 621.99 199.75 620.69 197.55C619.39 195.35 618.14 193.25 616.94 191.25H616.79C615.59 193.15 614.34 195.2 613.04 197.4C611.84 199.5 610.59 201.5 609.29 203.4L592.94 229.2C592.44 229.9 591.79 230.25 590.99 230.25H576.74Z" fill="#0E1E35"/>
<path d="M684.03 230.25C682.83 230.25 682.38 229.65 682.68 228.45L715.53 133.35C715.83 132.45 716.43 132 717.33 132H733.38C734.38 132 735.03 132.45 735.33 133.35L768.48 228.45C768.78 229.65 768.33 230.25 767.13 230.25H754.23C753.23 230.25 752.58 229.8 752.28 228.9L731.28 164.1C730.28 161 729.28 157.9 728.28 154.8C727.295 151.648 726.31 148.545 725.325 145.491C725.298 145.407 725.22 145.35 725.132 145.35C725.042 145.35 724.963 145.41 724.938 145.496C724.05 148.548 723.114 151.599 722.13 154.65C721.13 157.65 720.13 160.7 719.13 163.8L698.43 228.9C698.13 229.8 697.48 230.25 696.48 230.25H684.03ZM718.705 208.35C717.416 208.35 716.463 207.147 716.758 205.892L718.817 197.142C719.03 196.238 719.836 195.6 720.764 195.6H743.099C744.003 195.6 744.794 196.206 745.03 197.078L747.398 205.828C747.742 207.099 746.784 208.35 745.467 208.35H718.705Z" fill="#0E1E35"/>
<path d="M545.42 173C546.525 173 547.42 173.895 547.42 175V185C547.42 186.105 546.525 187 545.42 187H507.42V216H549.42C550.525 216 551.42 216.895 551.42 218V228C551.42 229.105 550.525 230 549.42 230H494.42C493.385 230 492.533 229.213 492.431 228.204C492.424 228.137 492.42 228.069 492.42 228V175C492.42 173.895 493.316 173 494.42 173H545.42Z" fill="#0E1E35"/>
<path d="M549.42 131C550.525 131 551.42 131.895 551.42 133V143C551.42 144.105 550.525 145 549.42 145H494.42C493.316 145 492.42 144.105 492.42 143V133C492.42 131.895 493.316 131 494.42 131H549.42Z" fill="#0E1E35"/>
<path d="M379.825 36.6514C381.527 36.6514 383.168 37.1817 384.56 38.211L423.22 66.5651C424.953 67.844 426.099 69.7156 426.439 71.8679C426.78 74.0202 426.253 76.1413 424.984 77.8881C423.437 80.0092 421.084 81.2257 418.453 81.2257C415.822 81.2257 415.11 80.6954 413.718 79.6661L375.058 51.3119C373.325 50.033 372.179 48.1615 371.839 46.0092C371.499 43.8569 372.025 41.7358 373.294 39.989C374.841 37.8679 377.194 36.6514 379.825 36.6514ZM379.825 29.1651C375.058 29.1651 370.322 31.3798 367.289 35.5908C362.275 42.5468 363.791 52.3101 370.694 57.3633L409.353 85.7174C412.108 87.745 415.296 88.7119 418.453 88.7119C423.22 88.7119 427.956 86.4973 430.989 82.2862C436.003 75.3303 434.487 65.567 427.584 60.5138L388.925 32.1596C386.17 30.1321 382.982 29.1651 379.825 29.1651Z" fill="url(#paint0_linear_20_5)"/>
<path d="M403.194 7.48624C404.896 7.48624 406.537 8.01651 407.929 9.04587L413.47 13.1009C417.06 15.7211 417.865 20.8055 415.234 24.4239L410.499 30.9743L398.458 22.1468C394.868 19.5266 394.063 14.4422 396.694 10.8239C398.241 8.70275 400.594 7.48624 403.225 7.48624M403.194 0C398.427 0 393.691 2.21468 390.658 6.42569C385.644 13.3816 387.16 23.145 394.063 28.1982L412.108 41.4239L421.208 28.822C426.222 21.8661 424.706 12.1027 417.803 7.04954L412.263 2.99449C409.508 0.966969 406.32 0 403.163 0H403.194Z" fill="url(#paint1_linear_20_5)"/>
<path d="M349.491 14.4422C351.194 14.4422 352.834 14.9725 354.227 16.0018C355.96 17.2807 357.106 19.1523 357.446 21.3046C357.787 23.4569 357.26 25.578 355.991 27.3248C354.444 29.4459 352.091 30.6624 349.46 30.6624C346.829 30.6624 346.118 30.1321 344.725 29.1028C342.991 27.8239 341.846 25.9523 341.506 23.8C341.165 21.6477 341.691 19.5266 342.96 17.7798C344.508 15.6587 346.86 14.4422 349.491 14.4422ZM349.491 6.95597C344.725 6.95597 339.989 9.17064 336.956 13.3817C331.941 20.3376 333.458 30.1009 340.36 35.1541C343.115 37.1817 346.303 38.1486 349.46 38.1486C354.227 38.1486 358.963 35.9339 361.996 31.7229C367.01 24.767 365.494 15.0037 358.591 9.95046C355.837 7.92294 352.649 6.95597 349.491 6.95597Z" fill="url(#paint2_linear_20_5)"/>
<path d="M357.353 65.3174L369.394 74.145C372.984 76.7652 373.789 81.8495 371.158 85.4679C369.61 87.589 367.258 88.8055 364.627 88.8055C361.996 88.8055 361.284 88.2752 359.891 87.2459L354.351 83.1908C350.76 80.5706 349.956 75.4863 352.587 71.8679L357.322 65.3174M355.713 54.8367L346.613 67.4385C341.599 74.3945 343.115 84.1578 350.018 89.211L355.558 93.2661C358.313 95.2936 361.501 96.2606 364.658 96.2606C369.425 96.2606 374.16 94.0459 377.194 89.8349C382.208 82.8789 380.691 73.1156 373.789 68.0624L355.744 54.8367H355.713Z" fill="url(#paint3_linear_20_5)"/>
<path d="M254.538 343.396C250.69 343.396 247.201 342.51 244.071 340.737C240.978 338.964 238.526 336.55 236.716 333.495C234.905 330.402 234 326.97 234 323.198C234 319.426 234.905 316.013 236.716 312.957C238.526 309.865 240.978 307.432 244.071 305.659C247.201 303.886 250.69 303 254.538 303C257.593 303 260.459 303.585 263.137 304.754C265.815 305.885 268.078 307.488 269.927 309.563C271.775 311.6 273.057 313.938 273.774 316.578H266.985C265.928 314.24 264.288 312.373 262.062 310.977C259.837 309.582 257.329 308.884 254.538 308.884C251.86 308.884 249.427 309.525 247.239 310.808C245.089 312.052 243.392 313.768 242.147 315.956C240.94 318.106 240.337 320.52 240.337 323.198C240.337 325.876 240.94 328.309 242.147 330.496C243.392 332.646 245.089 334.363 247.239 335.645C249.427 336.89 251.86 337.512 254.538 337.512C257.027 337.512 259.29 336.965 261.327 335.871C263.401 334.777 265.08 333.288 266.362 331.402C267.645 329.478 268.361 327.328 268.512 324.952L269.474 327.045H255.16V321.501H274.736V323.594C274.66 327.328 273.717 330.704 271.907 333.721C270.134 336.701 267.72 339.058 264.665 340.793C261.647 342.528 258.272 343.396 254.538 343.396Z" fill="#0E1E35"/>
<path d="M294.809 322.538H303.635C304.804 322.538 305.879 322.255 306.86 321.689C307.841 321.086 308.614 320.294 309.18 319.313C309.746 318.332 310.028 317.239 310.028 316.032C310.028 314.825 309.746 313.731 309.18 312.75C308.614 311.732 307.841 310.94 306.86 310.374C305.879 309.808 304.804 309.525 303.635 309.525H294.809V303.754H303.748C306.125 303.754 308.256 304.282 310.142 305.338C312.065 306.395 313.574 307.866 314.668 309.751C315.762 311.6 316.308 313.674 316.308 315.975C316.308 318.2 315.762 320.218 314.668 322.029C313.574 323.839 312.084 325.272 310.198 326.329C308.312 327.347 306.2 327.856 303.862 327.856H294.809V322.538ZM290.736 303.754H296.846V342.793H290.736V303.754ZM300.241 327.008L306.464 325.763L317.157 342.793H309.746L300.241 327.008Z" fill="#0E1E35"/>
<path d="M353.695 343.396C349.847 343.396 346.359 342.51 343.228 340.737C340.135 338.964 337.683 336.55 335.873 333.495C334.062 330.402 333.157 326.97 333.157 323.198C333.157 319.426 334.062 316.013 335.873 312.957C337.683 309.865 340.135 307.432 343.228 305.659C346.359 303.886 349.847 303 353.695 303C357.504 303 360.974 303.886 364.105 305.659C367.236 307.432 369.687 309.865 371.46 312.957C373.27 316.013 374.176 319.426 374.176 323.198C374.176 326.97 373.27 330.402 371.46 333.495C369.687 336.55 367.236 338.964 364.105 340.737C360.974 342.51 357.504 343.396 353.695 343.396ZM353.695 337.512C356.335 337.512 358.73 336.89 360.88 335.645C363.068 334.363 364.784 332.646 366.029 330.496C367.273 328.309 367.896 325.876 367.896 323.198C367.896 320.52 367.273 318.106 366.029 315.956C364.784 313.768 363.068 312.052 360.88 310.808C358.73 309.525 356.335 308.884 353.695 308.884C351.017 308.884 348.584 309.525 346.396 310.808C344.246 312.052 342.549 313.768 341.304 315.956C340.097 318.106 339.494 320.52 339.494 323.198C339.494 325.876 340.097 328.309 341.304 330.496C342.549 332.646 344.246 334.363 346.396 335.645C348.584 336.89 351.017 337.512 353.695 337.512Z" fill="#0E1E35"/>
<path d="M390.176 303.754H395.875L405.357 336.748H404.064L413.69 303.754H418.431L428.057 336.748H426.812L436.246 303.754H441.85L430.021 342.604H424.753L415.175 309.948H416.803L407.273 342.604H402.005L390.176 303.754Z" fill="#0E1E35"/>
<path d="M468.656 306.923H474.766V342.793H468.656V306.923ZM457.85 303.754H485.572V309.525H457.85V303.754Z" fill="#0E1E35"/>
<path d="M527.881 303.754H533.991V342.793H527.881V303.754ZM501.573 303.754H507.683V342.793H501.573V303.754ZM505.646 320.275H529.918V326.046H505.646V320.275Z" fill="#0E1E35"/>
<rect x="580" y="253" width="189" height="10" fill="#0E1E35"/>
<rect x="580" y="253" width="189" height="10" fill="url(#paint4_linear_20_5)"/>
<rect y="253" width="189" height="10" fill="#0E1E35"/>
<rect y="253" width="189" height="10" fill="url(#paint5_linear_20_5)"/>
<defs>
<linearGradient id="paint0_linear_20_5" x1="467" y1="-6.5" x2="309.5" y2="87.5" gradientUnits="userSpaceOnUse">
<stop stop-color="#1670C3"/>
<stop offset="0.480769" stop-color="#1099E9"/>
<stop offset="1" stop-color="#24D5FF"/>
</linearGradient>
<linearGradient id="paint1_linear_20_5" x1="467" y1="-6.5" x2="309.5" y2="87.5" gradientUnits="userSpaceOnUse">
<stop stop-color="#1670C3"/>
<stop offset="0.480769" stop-color="#1099E9"/>
<stop offset="1" stop-color="#24D5FF"/>
</linearGradient>
<linearGradient id="paint2_linear_20_5" x1="467" y1="-6.5" x2="309.5" y2="87.5" gradientUnits="userSpaceOnUse">
<stop stop-color="#1670C3"/>
<stop offset="0.480769" stop-color="#1099E9"/>
<stop offset="1" stop-color="#24D5FF"/>
</linearGradient>
<linearGradient id="paint3_linear_20_5" x1="467" y1="-6.5" x2="309.5" y2="87.5" gradientUnits="userSpaceOnUse">
<stop stop-color="#1670C3"/>
<stop offset="0.480769" stop-color="#1099E9"/>
<stop offset="1" stop-color="#24D5FF"/>
</linearGradient>
<linearGradient id="paint4_linear_20_5" x1="831.509" y1="252.325" x2="828.116" y2="289.192" gradientUnits="userSpaceOnUse">
<stop stop-color="#1670C3"/>
<stop offset="0.480769" stop-color="#1099E9"/>
<stop offset="1" stop-color="#24D5FF"/>
</linearGradient>
<linearGradient id="paint5_linear_20_5" x1="251.509" y1="252.325" x2="248.116" y2="289.192" gradientUnits="userSpaceOnUse">
<stop stop-color="#1670C3"/>
<stop offset="0.480769" stop-color="#1099E9"/>
<stop offset="1" stop-color="#24D5FF"/>
</linearGradient>
</defs>
</svg>
